<?xml version="1.0" standalone="no"?>
<!DOCTYPE svg PUBLIC "-//W3C//DTD SVG 20010904//EN"
 "http://www.w3.org/TR/2001/REC-SVG-20010904/DTD/svg10.dtd">
<svg version="1.0" xmlns="http://www.w3.org/2000/svg"
 width="400.000000pt" height="360.000000pt" viewBox="0 0 400.000000 360.000000"
 preserveAspectRatio="xMidYMid meet">

<g transform="translate(0.000000,360.000000) scale(0.100000,-0.100000)"
fill="#000000" stroke="none">
<path d="M1849 3586 c-146 -31 -270 -98 -364 -198 -93 -98 -147 -219 -163
-362 l-7 -61 -515 -5 -515 -5 -56 -28 c-88 -43 -143 -98 -186 -185 l-38 -76
-3 -305 -3 -306 803 -218 c442 -120 813 -220 826 -224 21 -5 22 -2 22 48 0 82
16 127 53 149 30 18 52 20 295 20 286 0 307 -3 330 -55 7 -14 12 -57 12 -95 0
-50 4 -70 13 -70 6 0 379 101 827 223 l815 222 3 260 c3 270 -3 339 -39 421
-28 68 -118 156 -192 190 l-62 29 -510 3 -511 3 -17 92 c-31 162 -114 304
-232 394 -71 54 -177 106 -260 128 -85 22 -245 28 -326 11z m323 -273 c84 -39
151 -105 189 -186 28 -62 51 -151 41 -162 -3 -3 -187 -5 -409 -5 -322 0 -403
3 -403 13 0 32 33 136 56 175 54 92 121 146 229 185 37 13 73 17 140 14 76 -2
100 -8 157 -34z"/>
<path d="M2 1102 l3 -807 33 -67 c41 -84 128 -167 209 -200 l58 -23 1695 0
1695 0 67 32 c119 56 190 141 223 268 13 51 15 170 15 833 0 732 -1 773 -17
768 -10 -3 -376 -102 -813 -221 -437 -119 -803 -218 -813 -221 -15 -5 -17 -23
-17 -185 l0 -181 -29 -29 -29 -29 -281 0 -281 0 -32 29 -33 29 -5 183 -5 182
-820 223 c-451 123 -821 224 -823 224 -1 0 -1 -363 0 -808z"/>
<path d="M1799 1701 l-24 -19 0 -252 0 -252 24 -19 c21 -17 41 -19 196 -19
159 0 174 2 199 21 l26 20 0 249 0 249 -26 20 c-25 19 -40 21 -199 21 -155 0
-175 -2 -196 -19z"/>
</g>
</svg>
